{
  "accessors": [
    {
      "bufferView": 1,
      "componentType": 5126,
      "count": 531,
      "max": [
        1.3370330333709717,
        -1.7287739515304565,
        43.880008697509766
      ],
      "min": [
        -1.3370330333709717,
        -2.2276809215545654,
        42.882194519042969
      ],
      "type": "VEC3"
    },
    {
      "bufferView": 1,
      "byteOffset": 6372,
      "componentType": 5126,
      "count": 531,
      "max": [
        0.99670922756195068,
        -0.078694023191928864,
        0.97307300567626953
      ],
      "min": [
        -0.99670922756195068,
        -1,
        -0.97307121753692627
      ],
      "type": "VEC3"
    },
    {
      "bufferView": 2,
      "componentType": 5126,
      "count": 531,
      "max": [
        0.92142516374588013,
        0.99670928716659546,
        1,
        1
      ],
      "min": [
        -0.35911911725997925,
        -0.99670928716659546,
        -0.3660862147808075,
        1
      ],
      "type": "VEC4"
    },
    {
      "bufferView": 0,
      "componentType": 5125,
      "count": 2280,
      "max": [
        530
      ],
      "min": [
        0
      ],
      "type": "SCALAR"
    },
    {
      "bufferView": 1,
      "byteOffset": 12744,
      "componentType": 5126,
      "count": 3692,
      "max": [
        21.071903228759766,
        4.0040860176086426,
        46.524467468261719
      ],
      "min": [
        -21.071903228759766,
        -3.7830901145935059,
        0.14915400743484497
      ],
      "type": "VEC3"
    },
    {
      "bufferView": 1,
      "byteOffset": 57048,
      "componentType": 5126,
      "count": 3692,
      "max": [
        0.99980854988098145,
        0.99984735250473022,
        0.99998688697814941
      ],
      "min": [
        -0.99980854988098145,
        -0.99976062774658203,
        -1
      ],
      "type": "VEC3"
    },
    {
      "bufferView": 2,
      "byteOffset": 8496,
      "componentType": 5126,
      "count": 3692,
      "max": [
        1,
        1,
        0.99999362230300903,
        1
      ],
      "min": [
        -0.99652713537216187,
        -1,
        -0.99997687339782715,
        -1
      ],
      "type": "VEC4"
    },
    {
      "bufferView": 0,
      "byteOffset": 9120,
      "componentType": 5125,
      "count": 14460,
      "max": [
        3691
      ],
      "min": [
        0
      ],
      "type": "SCALAR"
    }
  ],
  "asset": {
    "extras": {
      "author": "Fernando H. C. Menezes (https://sketchfab.com/fhcgyn)",
      "license": "CC-BY-4.0 (http://creativecommons.org/licenses/by/4.0/)",
      "source": "https://sketchfab.com/models/82a4ecdc802747fca40a753d7a165181",
      "title": "Blank Woman"
    },
    "generator": "Sketchfab-3.18.6",
    "version": "2.0"
  },
  "bufferViews": [
    {
      "buffer": 0,
      "byteLength": 66960,
      "byteOffset": 0,
      "name": "floatBufferViews",
      "target": 34963
    },
    {
      "buffer": 0,
      "byteLength": 101352,
      "byteOffset": 66960,
      "byteStride": 12,
      "name": "floatBufferViews",
      "target": 34962
    },
    {
      "buffer": 0,
      "byteLength": 67568,
      "byteOffset": 168312,
      "byteStride": 16,
      "name": "floatBufferViews",
      "target": 34962
    }
  ],
  "buffers": [
    {
      "byteLength": 235880,
      "uri": "scene.bin"
    }
  ],
  "materials": [
    {
      "doubleSided": true,
      "emissiveFactor": [
        0,
        0,
        0
      ],
      "name": "initialShadingGroup",
      "pbrMetallicRoughness": {
        "baseColorFactor": [
          1,
          1,
          1,
          1
        ],
        "metallicFactor": 0,
        "roughnessFactor": 0.59999999999999998
      }
    }
  ],
  "meshes": [
    {
      "primitives": [
        {
          "attributes": {
            "NORMAL": 1,
            "POSITION": 0,
            "TANGENT": 2
          },
          "indices": 3,
          "material": 0,
          "mode": 4
        }
      ]
    },
    {
      "primitives": [
        {
          "attributes": {
            "NORMAL": 5,
            "POSITION": 4,
            "TANGENT": 6
          },
          "indices": 7,
          "material": 0,
          "mode": 4
        }
      ]
    }
  ],
  "nodes": [
    {
      "children": [
        1
      ],
      "name": "RootNode (gltf orientation matrix)",
      "rotation": [
        -0.70710678118654746,
        -0,
        -0,
        0.70710678118654757
      ]
    },
    {
      "children": [
        2
      ],
      "name": "RootNode (model correction matrix)"
    },
    {
      "children": [
        3,
        4
      ],
      "name": "d7291a1af6ec40e7a82ba5468043e084.obj.cleaner.materialmerger.gles"
    },
    {
      "mesh": 0,
      "name": ""
    },
    {
      "mesh": 1,
      "name": ""
    }
  ],
  "scene": 0,
  "scenes": [
    {
      "name": "OSG_Scene",
      "nodes": [
        0
      ]
    }
  ]
}

